<svg xmlns="http://www.w3.org/2000/svg" viewBox="0 0 118.76 118.72"><defs><style>.cls-1{fill:#d20073;}.cls-2{fill:#23bbea;}.cls-3{fill:#009de0;}.cls-4{fill:#006fb7;}.cls-5{fill:#003883;}</style></defs><title>Fichier 9</title><g id="Calque_2" data-name="Calque 2"><g id="Calque_1-2" data-name="Calque 1"><path class="cls-1" d="M118.68,18.51c0,.41,0,.83,0,1.26a19.38,19.38,0,0,1-5.81,13.77h0l-8.71,8.83a0,0,0,0,1,0,0l-25,25V98.29c0,11.24,8.9,20.43,19.77,20.43s19.77-9.19,19.77-20.43V20.42C118.76,19.78,118.73,19.14,118.68,18.51Z"/><path class="cls-2" d="M51.41,39.54l-46,45.95,0,0c-7.11,8-7.07,20.09.31,27.46l0,0L79.22,39.54Z"/><path class="cls-3" d="M5.8,113c7.38,7.35,19.48,7.39,27.44.28l0,0,.84-.84h0L79.22,67.35V39.54Z"/><path class="cls-4" d="M104.2,42.37l8.71-8.83h0a20.71,20.71,0,0,1-14.62,6H79.22V67.35l25-25A0,0,0,0,0,104.2,42.37Z"/><path class="cls-1" d="M96.7.14l.21,0,.51,0,.68,0H20.43C9.19,0,0,8.9,0,19.77S9.19,39.54,20.43,39.54h31L84.16,6.78A19.58,19.58,0,0,1,96.7.14Z"/><path class="cls-4" d="M79.23,19.85c0-.06,0-.11,0-.17s0-.27,0-.41v-.18l0-.4c0-.06,0-.12,0-.17s0-.29,0-.43,0-.09,0-.14l.06-.48a.2.2,0,0,0,0-.07c.09-.59.2-1.17.33-1.75a19.63,19.63,0,0,1,4.39-8.87L51.41,39.54H79.22V20.42C79.22,20.23,79.23,20,79.23,19.85Z"/><path class="cls-5" d="M118.68,18.51a21.2,21.2,0,0,0-.45-2.78A19.63,19.63,0,0,0,99,0H98.1l-.68.05-.51,0-.21,0A19.58,19.58,0,0,0,84.16,6.78h0a19.63,19.63,0,0,0-4.39,8.87v0c-.13.57-.24,1.15-.33,1.73a.2.2,0,0,1,0,.07l-.06.48c0,.05,0,.09,0,.14s0,.28,0,.43,0,.11,0,.17l0,.4v.18c0,.14,0,.27,0,.41s0,.11,0,.17,0,.38,0,.57V39.54H98.29c11.24,0,20.43-8.9,20.43-19.77C118.72,19.34,118.7,18.92,118.68,18.51Z"/></g></g></svg>